<svg width="206" height="95" viewBox="0 0 206 95" fill="none" xmlns="http://www.w3.org/2000/svg">
<g style="mix-blend-mode:darken" filter="url(#filter0_b_1_2)">
<path d="M2.53125 93C1.94531 93 1.45703 92.6484 1.06641 91.9453C0.714844 91.2422 0.539062 90.5977 0.539062 90.0117C0.539062 89.3477 0.675781 88.8398 0.949219 88.4883C1.22266 88.1367 1.73047 87.9219 2.47266 87.8438C4.81641 87.6484 6.80859 87.2773 8.44922 86.7305C10.1289 86.1445 10.9688 85.2656 10.9688 84.0938L11.0273 20.6953C11.0273 19.1719 10.5781 18.0195 9.67969 17.2383C8.78125 16.457 7.78516 15.9492 6.69141 15.7148C5.63672 15.4805 4.11328 15.2461 2.12109 15.0117C1.26172 14.9336 0.695312 14.7773 0.421875 14.543C0.148438 14.2695 0.0117188 13.7031 0.0117188 12.8438C0.0117188 12.2578 0.1875 11.6133 0.539062 10.9102C0.929688 10.207 1.41797 9.85547 2.00391 9.85547H15.0703C17.5703 9.85547 20.9297 9.73828 25.1484 9.50391C29.4453 9.26953 32.9609 9.15234 35.6953 9.15234C40.6172 9.15234 45.168 9.99219 49.3477 11.6719C53.5664 13.3125 56.9844 15.9883 59.6016 19.6992C62.2188 23.3711 63.5273 28.0781 63.5273 33.8203C63.5273 38.9766 62.2383 43.5859 59.6602 47.6484C57.082 51.6719 53.4883 54.8164 48.8789 57.082C44.2695 59.3477 39.0742 60.4805 33.293 60.4805H23.0977V82.1602C23.0977 83.6836 23.7031 84.8555 24.9141 85.6758C26.1641 86.457 27.5703 86.9844 29.1328 87.2578C30.6953 87.4922 32.6289 87.6875 34.9336 87.8438C35.793 87.9219 36.3594 88.0977 36.6328 88.3711C36.9062 88.6055 37.043 89.1523 37.043 90.0117C37.043 90.5977 36.8477 91.2422 36.457 91.9453C36.1055 92.6484 35.6367 93 35.0508 93H2.53125ZM33.1172 55.4414C34.9922 55.4414 37.2773 54.7773 39.9727 53.4492C42.668 52.082 45.0312 49.875 47.0625 46.8281C49.1328 43.7422 50.168 39.8164 50.168 35.0508C50.168 27.6289 48.3516 22.3359 44.7188 19.1719C41.125 15.9687 36.6133 14.3672 31.1836 14.3672H23.1562L23.0977 55.4414H33.1172ZM96.2812 94.582C91.2422 94.582 87.1797 93.3516 84.0938 90.8906C81.0469 88.3906 79.5234 83.8203 79.5234 77.1797V45.0117C79.5234 43.4492 79.1719 42.2773 78.4688 41.4961C77.7656 40.7148 76.9648 40.207 76.0664 39.9727C75.168 39.6992 74.0156 39.4844 72.6094 39.3281C71.75 39.25 71.1836 39.0938 70.9102 38.8594C70.6367 38.5859 70.5 38.0195 70.5 37.1602C70.5 36.6523 70.6758 36.125 71.0273 35.5781C71.418 35.0312 71.9062 34.7578 72.4922 34.7578H88.3711C89.8164 34.7578 90.5391 35.4609 90.5391 36.8672V77.707C90.5391 79.9336 91.0469 81.9453 92.0625 83.7422C93.0781 85.5 95.0898 86.3789 98.0977 86.3789C101.926 86.3789 105.07 85.8711 107.531 84.8555C109.992 83.8398 112.219 82.2578 114.211 80.1094V45.0117C114.211 43.4492 113.781 42.2773 112.922 41.4961C112.062 40.7148 111.086 40.207 109.992 39.9727C108.898 39.7383 107.336 39.5234 105.305 39.3281C104.445 39.25 103.879 39.0938 103.605 38.8594C103.332 38.5859 103.195 38.0195 103.195 37.1602C103.195 36.6523 103.371 36.125 103.723 35.5781C104.113 35.0312 104.602 34.7578 105.188 34.7578H122.941C124.387 34.7578 125.109 35.4609 125.109 36.8672V80.6953C125.109 85.4609 125.91 87.8438 127.512 87.8438C128.332 87.8438 129.25 87.6875 130.266 87.375C130.891 87.1797 131.438 87.3945 131.906 88.0195C132.375 88.6055 132.609 89.2305 132.609 89.8945C132.609 90.3242 132.492 90.6367 132.258 90.832C131.906 91.2227 131.223 91.7109 130.207 92.2969C129.191 92.8438 127.883 93.332 126.281 93.7617C124.68 94.2305 122.922 94.4648 121.008 94.4648C119.016 94.4648 117.453 93.7422 116.32 92.2969C115.188 90.8125 114.484 88.4883 114.211 85.3242C113.508 86.6523 112.199 88.0391 110.285 89.4844C108.41 90.9297 106.223 92.1406 103.723 93.1172C101.223 94.0938 98.7422 94.582 96.2812 94.582ZM140.051 93C139.426 93 138.938 92.7461 138.586 92.2383C138.234 91.6914 138.059 91.1445 138.059 90.5977C138.059 89.9336 138.195 89.4258 138.469 89.0742C138.742 88.7227 139.25 88.5078 139.992 88.4297C141.828 88.2344 143.41 87.8633 144.738 87.3164C146.105 86.7305 146.789 85.8516 146.789 84.6797V39.8555H139.582C139.152 39.8164 138.801 39.6016 138.527 39.2109C138.293 38.8203 138.176 38.3711 138.176 37.8633C138.176 36.5742 138.645 35.7344 139.582 35.3438L146.73 34.7578L146.789 30.0117C146.867 23.8008 148.293 18.5078 151.066 14.1328C153.84 9.75781 157.707 6.45703 162.668 4.23047C167.629 1.96484 173.352 0.832031 179.836 0.832031C183.273 0.832031 186.34 1.28125 189.035 2.17969C191.73 3.03906 193.82 4.23047 195.305 5.75391C196.828 7.27734 197.59 8.9375 197.59 10.7344C197.59 13.4688 197.16 15.4609 196.301 16.7109C195.48 17.9609 194.543 18.7031 193.488 18.9375C192.434 19.1719 191.066 19.2891 189.387 19.2891L182.18 7.98047C180.852 7.08203 179.25 6.63281 177.375 6.63281C171.828 6.63281 167.16 8.29297 163.371 11.6133C159.582 14.8945 157.688 20.4023 157.688 28.1367V34.7578H186.281C189.172 34.6797 191.066 34.6406 191.965 34.6406L194.836 34.582C195.227 34.582 195.598 34.7578 195.949 35.1094C196.301 35.4609 196.516 36.0664 196.594 36.9258V82.7461C196.594 84.3086 196.945 85.4805 197.648 86.2617C198.391 87.043 199.23 87.5703 200.168 87.8438C201.145 88.0781 202.336 88.2734 203.742 88.4297C204.602 88.5078 205.168 88.6836 205.441 88.957C205.715 89.1914 205.852 89.7383 205.852 90.5977C205.852 91.1055 205.656 91.6328 205.266 92.1797C204.914 92.7266 204.445 93 203.859 93H178.957C178.332 93 177.844 92.7461 177.492 92.2383C177.141 91.6914 176.965 91.1445 176.965 90.5977C176.965 89.9336 177.102 89.4258 177.375 89.0742C177.648 88.7227 178.156 88.5078 178.898 88.4297C180.734 88.2344 182.316 87.8633 183.645 87.3164C184.973 86.7305 185.637 85.8516 185.637 84.6797L185.695 47.4141C185.695 44.25 184.836 42.1992 183.117 41.2617C181.438 40.2852 179.387 39.7969 176.965 39.7969L157.688 39.8555V82.7461C157.688 84.3086 158.176 85.4805 159.152 86.2617C160.129 87.043 161.242 87.5703 162.492 87.8438C163.742 88.0781 165.305 88.2734 167.18 88.4297C168.039 88.5078 168.605 88.6836 168.879 88.957C169.152 89.1914 169.289 89.7383 169.289 90.5977C169.289 91.1445 169.113 91.6914 168.762 92.2383C168.41 92.7461 167.922 93 167.297 93H140.051Z" fill="black"/>
<path d="M1.06641 91.9453L0.171979 92.3925L0.181697 92.412L0.192249 92.431L1.06641 91.9453ZM2.47266 87.8438L2.38961 86.8472L2.37878 86.8481L2.36797 86.8492L2.47266 87.8438ZM8.44922 86.7305L8.76548 87.6792L8.77859 87.6747L8.44922 86.7305ZM10.9688 84.0938L9.96875 84.0928V84.0938H10.9688ZM11.0273 20.6953L12.0273 20.6962V20.6953H11.0273ZM6.69141 15.7148L6.47447 16.6911L6.48188 16.6926L6.69141 15.7148ZM2.12109 15.0117L2.23793 14.0186L2.2248 14.017L2.21163 14.0158L2.12109 15.0117ZM0.421875 14.543L-0.285232 15.2501L-0.258075 15.2772L-0.228916 15.3022L0.421875 14.543ZM0.539062 10.9102L-0.335095 10.4245L-0.345647 10.4435L-0.355365 10.4629L0.539062 10.9102ZM25.1484 9.50391L25.094 8.50539L25.093 8.50545L25.1484 9.50391ZM49.3477 11.6719L48.9747 12.5998L48.9852 12.6039L49.3477 11.6719ZM59.6016 19.6992L58.7843 20.2756L58.7872 20.2796L59.6016 19.6992ZM59.6602 47.6484L60.5021 48.188L60.5045 48.1843L59.6602 47.6484ZM23.0977 60.4805V59.4805H22.0977V60.4805H23.0977ZM24.9141 85.6758L24.3532 86.5037L24.3685 86.514L24.3841 86.5238L24.9141 85.6758ZM29.1328 87.2578L28.9604 88.2428L28.9724 88.2449L28.9845 88.2467L29.1328 87.2578ZM34.9336 87.8438L35.0241 86.8479L35.0127 86.8468L35.0012 86.846L34.9336 87.8438ZM36.6328 88.3711L35.9257 89.0782L35.9529 89.1054L35.982 89.1304L36.6328 88.3711ZM36.457 91.9453L35.5829 91.4597L35.5723 91.4787L35.5626 91.4981L36.457 91.9453ZM39.9727 53.4492L40.4147 54.3463L40.425 54.341L39.9727 53.4492ZM47.0625 46.8281L46.2321 46.271L46.2304 46.2734L47.0625 46.8281ZM44.7188 19.1719L44.0533 19.9184L44.062 19.926L44.7188 19.1719ZM23.1562 14.3672V13.3672H22.1577L22.1563 14.3658L23.1562 14.3672ZM23.0977 55.4414L22.0977 55.44L22.0962 56.4414H23.0977V55.4414ZM2.53125 92C2.43971 92 2.22939 91.9796 1.94056 91.4597L0.192249 92.431C0.684671 93.3173 1.45091 94 2.53125 94V92ZM1.96083 91.4981C1.65607 90.8886 1.53906 90.3987 1.53906 90.0117H-0.460938C-0.460938 90.7966 -0.226384 91.5958 0.171979 92.3925L1.96083 91.4981ZM1.53906 90.0117C1.53906 89.4656 1.65431 89.2106 1.73857 89.1022L0.159867 87.8743C-0.302743 88.4691 -0.460938 89.2298 -0.460938 90.0117H1.53906ZM1.73857 89.1022C1.76192 89.0722 1.93223 88.9062 2.57734 88.8383L2.36797 86.8492C1.52871 86.9376 0.683388 87.2012 0.159867 87.8743L1.73857 89.1022ZM2.5557 88.8403C4.95248 88.6406 7.02776 88.2584 8.76545 87.6792L8.13299 85.7818C6.58942 86.2963 4.68033 86.6563 2.38961 86.8472L2.5557 88.8403ZM8.77859 87.6747C10.6138 87.0345 11.9688 85.9032 11.9688 84.0938H9.96875C9.96875 84.628 9.64406 85.2546 8.11985 85.7863L8.77859 87.6747ZM11.9687 84.0947L12.0273 20.6962L10.0273 20.6944L9.96875 84.0928L11.9687 84.0947ZM12.0273 20.6953C12.0273 18.9692 11.5106 17.5052 10.3359 16.4837L9.02351 17.9929C9.64563 18.5339 10.0273 19.3746 10.0273 20.6953H12.0273ZM10.3359 16.4837C9.3183 15.5988 8.1707 15.0091 6.90094 14.737L6.48188 16.6926C7.39961 16.8893 8.2442 17.3152 9.02351 17.9929L10.3359 16.4837ZM6.90834 14.7387C5.80371 14.4932 4.24052 14.2542 2.23793 14.0186L2.00425 16.0049C3.98605 16.238 5.46973 16.4678 6.47448 16.691L6.90834 14.7387ZM2.21163 14.0158C1.81644 13.9799 1.52365 13.9288 1.31769 13.8719C1.09733 13.8112 1.04886 13.7633 1.07267 13.7837L-0.228916 15.3022C0.0683299 15.557 0.439777 15.7045 0.785829 15.7999C1.14627 15.8994 1.56637 15.9654 2.03056 16.0076L2.21163 14.0158ZM1.12898 13.8359C1.17238 13.8793 1.13185 13.867 1.08634 13.6784C1.04303 13.499 1.01172 13.228 1.01172 12.8438H-0.988281C-0.988281 13.3189 -0.951231 13.7608 -0.857824 14.1477C-0.766611 14.5256 -0.602066 14.9332 -0.285232 15.2501L1.12898 13.8359ZM1.01172 12.8438C1.01172 12.4568 1.12873 11.9669 1.43349 11.3574L-0.355365 10.4629C-0.753728 11.2597 -0.988281 12.0588 -0.988281 12.8438H1.01172ZM1.41322 11.3958C1.70205 10.8759 1.91237 10.8555 2.00391 10.8555V8.85547C0.923569 8.85547 0.157327 9.53815 -0.335095 10.4245L1.41322 11.3958ZM2.00391 10.8555H15.0703V8.85547H2.00391V10.8555ZM15.0703 10.8555C17.5971 10.8555 20.9774 10.7372 25.2039 10.5024L25.093 8.50545C20.882 8.73939 17.5435 8.85547 15.0703 8.85547V10.8555ZM25.2029 10.5024C29.4906 10.2685 32.9863 10.1523 35.6953 10.1523V8.15234C32.9356 8.15234 29.4 8.27052 25.094 8.50539L25.2029 10.5024ZM35.6953 10.1523C40.5013 10.1523 44.9242 10.9719 48.9748 12.5998L49.7205 10.744C45.4118 9.01243 40.7331 8.15234 35.6953 8.15234V10.1523ZM48.9852 12.6039C53.0201 14.173 56.2801 16.7248 58.7844 20.2756L60.4188 19.1229C57.6886 15.2518 54.1127 12.452 49.7101 10.7399L48.9852 12.6039ZM58.7872 20.2796C61.2543 23.7409 62.5273 28.2291 62.5273 33.8203H64.5273C64.5273 27.9271 63.1832 23.0013 60.4159 19.1188L58.7872 20.2796ZM62.5273 33.8203C62.5273 38.801 61.2849 43.2219 58.8158 47.1126L60.5045 48.1843C63.1916 43.95 64.5273 39.1521 64.5273 33.8203H62.5273ZM58.8182 47.1089C56.3459 50.9672 52.8961 53.9932 48.4378 56.1846L49.32 57.9795C54.0805 55.6396 57.8182 52.3766 60.5021 48.188L58.8182 47.1089ZM48.4378 56.1846C43.9821 58.3747 38.9406 59.4805 33.293 59.4805V61.4805C39.2078 61.4805 44.557 60.3206 49.32 57.9795L48.4378 56.1846ZM33.293 59.4805H23.0977V61.4805H33.293V59.4805ZM22.0977 60.4805V82.1602H24.0977V60.4805H22.0977ZM22.0977 82.1602C22.0977 83.9989 22.8543 85.4883 24.3532 86.5037L25.4749 84.8479C24.552 84.2227 24.0977 83.3683 24.0977 82.1602H22.0977ZM24.3841 86.5238C25.7514 87.3784 27.2808 87.9489 28.9604 88.2428L29.3052 86.2728C27.8599 86.0199 26.5767 85.5357 25.4441 84.8278L24.3841 86.5238ZM28.9845 88.2467C30.5829 88.4865 32.5454 88.6841 34.866 88.8415L35.0012 86.846C32.7125 86.6909 30.8078 86.4979 29.2812 86.2689L28.9845 88.2467ZM34.8431 88.8396C35.2314 88.8749 35.513 88.9292 35.7065 88.9892C35.9101 89.0524 35.9489 89.1014 35.9257 89.0782L37.3399 87.664C37.0433 87.3674 36.6622 87.1917 36.2993 87.0791C35.9264 86.9634 35.4952 86.8907 35.0241 86.8479L34.8431 88.8396ZM35.982 89.1304C35.895 89.0558 35.9258 89.0217 35.9703 89.1996C36.0114 89.3638 36.043 89.6259 36.043 90.0117H38.043C38.043 89.5382 38.0062 89.0971 37.9106 88.7145C37.8183 88.3455 37.644 87.9208 37.2836 87.6118L35.982 89.1304ZM36.043 90.0117C36.043 90.3761 35.9203 90.8523 35.5829 91.4597L37.3312 92.431C37.775 91.6321 38.043 90.8192 38.043 90.0117H36.043ZM35.5626 91.4981C35.3129 91.9975 35.1274 92 35.0508 92V94C36.146 94 36.898 93.2994 37.3515 92.3925L35.5626 91.4981ZM35.0508 92H2.53125V94H35.0508V92ZM33.1172 56.4414C35.2107 56.4414 37.6557 55.7057 40.4147 54.3462L39.5307 52.5522C36.899 53.8489 34.7737 54.4414 33.1172 54.4414V56.4414ZM40.425 54.341C43.3032 52.8811 45.788 50.5427 47.8946 47.3828L46.2304 46.2734C44.2745 49.2073 42.0327 51.283 39.5203 52.5574L40.425 54.341ZM47.8929 47.3852C50.1012 44.0937 51.168 39.9591 51.168 35.0508H49.168C49.168 39.6737 48.1644 43.3907 46.2321 46.271L47.8929 47.3852ZM51.168 35.0508C51.168 27.496 49.3216 21.8547 45.3755 18.4178L44.062 19.926C47.3815 22.8172 49.168 27.7619 49.168 35.0508H51.168ZM45.3841 18.4254C41.5835 15.0379 36.825 13.3672 31.1836 13.3672V15.3672C36.4015 15.3672 40.6665 16.8996 44.0534 19.9184L45.3841 18.4254ZM31.1836 13.3672H23.1562V15.3672H31.1836V13.3672ZM22.1563 14.3658L22.0977 55.44L24.0977 55.4428L24.1562 14.3686L22.1563 14.3658ZM23.0977 56.4414H33.1172V54.4414H23.0977V56.4414ZM84.0938 90.8906L83.4594 91.6638L83.4703 91.6725L84.0938 90.8906ZM76.0664 39.9727L75.7752 40.9293L75.7945 40.9352L75.814 40.9403L76.0664 39.9727ZM72.6094 39.3281L72.7198 38.3342L72.7099 38.3331L72.6999 38.3322L72.6094 39.3281ZM70.9102 38.8594L70.203 39.5665L70.2302 39.5936L70.2594 39.6186L70.9102 38.8594ZM71.0273 35.5781L70.2136 34.9969L70.1994 35.0168L70.1862 35.0374L71.0273 35.5781ZM92.0625 83.7422L91.1919 84.2343L91.1966 84.2425L92.0625 83.7422ZM114.211 80.1094L114.944 80.7893L115.211 80.5017V80.1094H114.211ZM105.305 39.3281L105.4 38.3327L105.395 38.3322L105.305 39.3281ZM103.605 38.8594L102.898 39.5665L102.926 39.5936L102.955 39.6186L103.605 38.8594ZM103.723 35.5781L102.909 34.9969L102.895 35.0168L102.881 35.0374L103.723 35.5781ZM130.266 87.375L130.56 88.3308L130.564 88.3295L130.266 87.375ZM131.906 88.0195L131.106 88.6195L131.116 88.632L131.125 88.6442L131.906 88.0195ZM132.258 90.832L131.618 90.0638L131.563 90.1097L131.515 90.1631L132.258 90.832ZM130.207 92.2969L130.681 93.1773L130.694 93.1704L130.707 93.1631L130.207 92.2969ZM126.281 93.7617L126.022 92.7959L126.011 92.7988L126 92.802L126.281 93.7617ZM116.32 92.2969L115.525 92.9036L115.533 92.9138L116.32 92.2969ZM114.211 85.3242L115.207 85.2381L114.915 81.857L113.327 84.8563L114.211 85.3242ZM110.285 89.4844L109.683 88.6863L109.675 88.6924L110.285 89.4844ZM103.723 93.1172L103.359 92.1857L103.723 93.1172ZM96.2812 93.582C91.4051 93.582 87.582 92.3933 84.7172 90.1088L83.4703 91.6725C86.7774 94.3098 91.0793 95.582 96.2812 95.582V93.582ZM84.7281 90.1176C82.0319 87.9053 80.5234 83.72 80.5234 77.1797H78.5234C78.5234 83.9206 80.0618 88.8759 83.4594 91.6637L84.7281 90.1176ZM80.5234 77.1797V45.0117H78.5234V77.1797H80.5234ZM80.5234 45.0117C80.5234 43.3196 80.145 41.8637 79.212 40.8271L77.7255 42.1651C78.1988 42.691 78.5234 43.5789 78.5234 45.0117H80.5234ZM79.212 40.8271C78.3959 39.9203 77.4308 39.2951 76.3188 39.005L75.814 40.9403C76.4989 41.1189 77.1354 41.5094 77.7255 42.1651L79.212 40.8271ZM76.3576 39.016C75.3786 38.718 74.1599 38.4942 72.7198 38.3342L72.4989 40.322C73.8714 40.4745 74.9573 40.6804 75.7752 40.9293L76.3576 39.016ZM72.6999 38.3322C72.3047 38.2963 72.0119 38.2452 71.806 38.1884C71.5856 38.1276 71.5371 38.0797 71.5609 38.1001L70.2594 39.6186C70.5566 39.8734 70.9281 40.0209 71.2741 40.1163C71.6346 40.2158 72.0546 40.2818 72.5188 40.324L72.6999 38.3322ZM71.6173 38.1523C71.6607 38.1957 71.6201 38.1834 71.5746 37.9949C71.5313 37.8154 71.5 37.5444 71.5 37.1602H69.5C69.5 37.6353 69.537 38.0772 69.6305 38.4641C69.7217 38.842 69.8862 39.2496 70.203 39.5665L71.6173 38.1523ZM71.5 37.1602C71.5 36.8911 71.5919 36.5492 71.8685 36.1189L70.1862 35.0374C69.7597 35.7008 69.5 36.4135 69.5 37.1602H71.5ZM71.8411 36.1594C72.0757 35.8309 72.2802 35.7578 72.4922 35.7578V33.7578C71.5323 33.7578 70.7602 34.2316 70.2136 34.9969L71.8411 36.1594ZM72.4922 35.7578H88.3711V33.7578H72.4922V35.7578ZM88.3711 35.7578C88.9464 35.7578 89.1929 35.8979 89.2997 36.0019C89.4015 36.1009 89.5391 36.3253 89.5391 36.8672H91.5391C91.5391 36.0029 91.3153 35.1726 90.6944 34.5684C90.0786 33.9692 89.2411 33.7578 88.3711 33.7578V35.7578ZM89.5391 36.8672V77.707H91.5391V36.8672H89.5391ZM89.5391 77.707C89.5391 80.092 90.0848 82.2755 91.1919 84.2342L92.9331 83.2501C92.0089 81.6151 91.5391 79.7752 91.5391 77.707H89.5391ZM91.1966 84.2425C92.4684 86.4435 94.9206 87.3789 98.0977 87.3789V85.3789C95.2591 85.3789 93.6879 84.5565 92.9284 83.2419L91.1966 84.2425ZM98.0977 87.3789C102.004 87.3789 105.29 86.8622 107.913 85.7798L107.15 83.9311C104.851 84.88 101.848 85.3789 98.0977 85.3789V87.3789ZM107.913 85.7798C110.52 84.7038 112.864 83.0329 114.944 80.7893L113.478 79.4294C111.574 81.4827 109.464 82.9759 107.15 83.9311L107.913 85.7798ZM115.211 80.1094V45.0117H113.211V80.1094H115.211ZM115.211 45.0117C115.211 43.2692 114.727 41.786 113.595 40.7562L112.249 42.236C112.835 42.7687 113.211 43.6292 113.211 45.0117H115.211ZM113.595 40.7562C112.61 39.8609 111.475 39.2677 110.202 38.9949L109.783 40.9505C110.697 41.1464 111.515 41.5688 112.249 42.236L113.595 40.7562ZM110.202 38.9949C109.052 38.7484 107.444 38.5292 105.4 38.3327L105.209 40.3235C107.228 40.5176 108.745 40.7282 109.783 40.9505L110.202 38.9949ZM105.395 38.3322C105 38.2963 104.707 38.2452 104.501 38.1884C104.281 38.1276 104.232 38.0797 104.256 38.1001L102.955 39.6186C103.252 39.8734 103.623 40.0209 103.969 40.1163C104.33 40.2158 104.75 40.2818 105.214 40.324L105.395 38.3322ZM104.313 38.1523C104.356 38.1957 104.315 38.1834 104.27 37.9949C104.227 37.8154 104.195 37.5444 104.195 37.1602H102.195C102.195 37.6353 102.232 38.0772 102.326 38.4641C102.417 38.842 102.582 39.2496 102.898 39.5665L104.313 38.1523ZM104.195 37.1602C104.195 36.8911 104.287 36.5492 104.564 36.1189L102.881 35.0374C102.455 35.7008 102.195 36.4135 102.195 37.1602H104.195ZM104.536 36.1594C104.771 35.8309 104.976 35.7578 105.188 35.7578V33.7578C104.228 33.7578 103.456 34.2316 102.909 34.9969L104.536 36.1594ZM105.188 35.7578H122.941V33.7578H105.188V35.7578ZM122.941 35.7578C123.517 35.7578 123.763 35.8979 123.87 36.0019C123.972 36.1009 124.109 36.3253 124.109 36.8672H126.109C126.109 36.0029 125.886 35.1726 125.265 34.5684C124.649 33.9692 123.811 33.7578 122.941 33.7578V35.7578ZM124.109 36.8672V80.6953H126.109V36.8672H124.109ZM124.109 80.6953C124.109 83.1076 124.309 85.0264 124.762 86.3752C125.208 87.7018 126.051 88.8438 127.512 88.8438V86.8438C127.37 86.8438 127.013 86.7943 126.658 85.7381C126.31 84.704 126.109 83.0486 126.109 80.6953H124.109ZM127.512 88.8438C128.456 88.8438 129.475 88.6644 130.56 88.3308L129.972 86.4192C129.025 86.7106 128.208 86.8438 127.512 86.8438V88.8438ZM130.564 88.3295C130.685 88.2916 130.742 88.3059 130.779 88.3204C130.832 88.3411 130.947 88.4078 131.106 88.6195L132.706 87.4195C132.396 87.0063 132.004 86.653 131.51 86.4589C131 86.2586 130.471 86.2631 129.967 86.4205L130.564 88.3295ZM131.125 88.6442C131.472 89.0772 131.609 89.4869 131.609 89.8945H133.609C133.609 88.9741 133.278 88.1338 132.687 87.3948L131.125 88.6442ZM131.609 89.8945C131.609 90.0223 131.591 90.0832 131.585 90.1C131.582 90.1072 131.583 90.1038 131.589 90.0944C131.596 90.0845 131.606 90.0735 131.618 90.0638L132.898 91.6003C133.442 91.1466 133.609 90.4946 133.609 89.8945H131.609ZM131.515 90.1631C131.277 90.4265 130.716 90.8488 129.707 91.4307L130.707 93.1631C131.729 92.5731 132.535 92.0188 133.001 91.501L131.515 90.1631ZM129.733 91.4164C128.808 91.9145 127.578 92.3783 126.022 92.7959L126.54 94.7276C128.187 94.2857 129.575 93.773 130.681 93.1773L129.733 91.4164ZM126 92.802C124.502 93.2404 122.84 93.4648 121.008 93.4648V95.4648C123.003 95.4648 124.857 95.2205 126.562 94.7215L126 92.802ZM121.008 93.4648C119.293 93.4648 118.033 92.8608 117.107 91.68L115.533 92.9138C116.873 94.6236 118.738 95.4648 121.008 95.4648V93.4648ZM117.115 91.6902C116.153 90.429 115.474 88.3306 115.207 85.2381L113.215 85.4103C113.494 88.646 114.222 91.196 115.525 92.9035L117.115 91.6902ZM113.327 84.8563C112.721 86.0007 111.542 87.2825 109.683 88.6863L110.888 90.2824C112.857 88.7957 114.294 87.304 115.095 85.7921L113.327 84.8563ZM109.675 88.6924C107.884 90.0726 105.782 91.2392 103.359 92.1857L104.087 94.0486C106.663 93.0421 108.936 91.7868 110.896 90.2764L109.675 88.6924ZM103.359 92.1857C100.964 93.1211 98.6069 93.582 96.2812 93.582V95.582C98.8775 95.582 101.481 95.0664 104.087 94.0486L103.359 92.1857ZM138.586 92.2383L137.745 92.779L137.754 92.7934L137.764 92.8075L138.586 92.2383ZM139.992 88.4297L140.097 89.4242L140.098 89.4241L139.992 88.4297ZM144.738 87.3164L145.119 88.2411L145.126 88.2384L145.132 88.2356L144.738 87.3164ZM146.789 39.8555H147.789V38.8555H146.789V39.8555ZM139.582 39.8555L139.491 40.8514L139.537 40.8555H139.582V39.8555ZM138.527 39.2109L137.67 39.7254L137.688 39.7556L137.708 39.7844L138.527 39.2109ZM139.582 35.3438L139.5 34.3471L139.343 34.36L139.197 34.4207L139.582 35.3438ZM146.73 34.7578L146.812 35.7545L147.719 35.6801L147.73 34.7702L146.73 34.7578ZM146.789 30.0117L145.789 29.9991L145.789 29.9994L146.789 30.0117ZM162.668 4.23047L163.077 5.14281L163.083 5.1401L162.668 4.23047ZM189.035 2.17969L188.719 3.12845L188.731 3.13243L189.035 2.17969ZM195.305 5.75391L194.588 6.45183L194.598 6.46101L195.305 5.75391ZM196.301 16.7109L195.477 16.1444L195.471 16.1533L195.465 16.1623L196.301 16.7109ZM189.387 19.2891L188.543 19.8265L188.838 20.2891H189.387V19.2891ZM182.18 7.98047L183.023 7.44303L182.912 7.26829L182.74 7.15219L182.18 7.98047ZM163.371 11.6133L164.026 12.3692L164.03 12.3654L163.371 11.6133ZM157.688 34.7578H156.688V35.7578H157.688V34.7578ZM186.281 34.7578V35.7578H186.295L186.308 35.7574L186.281 34.7578ZM191.965 34.6406V35.6406H191.975L191.985 35.6404L191.965 34.6406ZM194.836 34.582V33.582H194.826L194.816 33.5822L194.836 34.582ZM196.594 36.9258H197.594V36.8804L197.59 36.8352L196.594 36.9258ZM197.648 86.2617L196.905 86.9307L196.914 86.9407L196.923 86.9505L197.648 86.2617ZM200.168 87.8438L199.888 88.8037L199.911 88.8105L199.935 88.8161L200.168 87.8438ZM203.742 88.4297L203.632 89.4236L203.642 89.4247L203.652 89.4256L203.742 88.4297ZM205.441 88.957L204.734 89.6641L204.761 89.6913L204.791 89.7163L205.441 88.957ZM205.266 92.1797L204.452 91.5984L204.438 91.6184L204.424 91.6389L205.266 92.1797ZM177.492 92.2383L176.651 92.779L176.66 92.7934L176.67 92.8075L177.492 92.2383ZM178.898 88.4297L179.003 89.4242L179.004 89.4241L178.898 88.4297ZM183.645 87.3164L184.025 88.2411L184.037 88.2363L184.048 88.2313L183.645 87.3164ZM185.637 84.6797L184.637 84.6781V84.6797H185.637ZM185.695 47.4141L186.695 47.4156V47.4141H185.695ZM183.117 41.2617L182.615 42.1262L182.626 42.1331L182.638 42.1396L183.117 41.2617ZM176.965 39.7969L176.965 38.7969L176.962 38.7969L176.965 39.7969ZM157.688 39.8555L157.684 38.8555L156.688 38.8585V39.8555H157.688ZM159.152 86.2617L158.528 87.0426L159.152 86.2617ZM162.492 87.8438L162.278 88.8207L162.293 88.8239L162.308 88.8266L162.492 87.8438ZM167.18 88.4297L167.27 87.4338L167.263 87.4331L167.18 88.4297ZM168.879 88.957L168.172 89.6641L168.199 89.6913L168.228 89.7163L168.879 88.957ZM168.762 92.2383L169.584 92.8075L169.594 92.7934L169.603 92.779L168.762 92.2383ZM140.051 92C139.749 92 139.57 91.9033 139.408 91.6691L137.764 92.8075C138.305 93.5889 139.102 94 140.051 94V92ZM139.427 91.6975C139.159 91.2811 139.059 90.9191 139.059 90.5977H137.059C137.059 91.37 137.309 92.1017 137.745 92.779L139.427 91.6975ZM139.059 90.5977C139.059 90.0515 139.174 89.7965 139.258 89.6882L137.679 88.4603C137.217 89.0551 137.059 89.8157 137.059 90.5977H139.059ZM139.258 89.6882C139.281 89.6581 139.452 89.4921 140.097 89.4242L139.888 87.4352C139.048 87.5235 138.203 87.7872 137.679 88.4603L139.258 89.6882ZM140.098 89.4241C142.003 89.2214 143.682 88.8327 145.119 88.2411L144.358 86.3917C143.138 86.8938 141.653 87.2473 139.886 87.4353L140.098 89.4241ZM145.132 88.2356C145.921 87.8975 146.591 87.4421 147.066 86.8317C147.552 86.2071 147.789 85.4755 147.789 84.6797H145.789C145.789 85.0558 145.685 85.3495 145.487 85.6038C145.278 85.8723 144.923 86.1494 144.344 86.3973L145.132 88.2356ZM147.789 84.6797V39.8555H145.789V84.6797H147.789ZM146.789 38.8555H139.582V40.8555H146.789V38.8555ZM139.673 38.8596C139.569 38.8502 139.471 38.8155 139.347 38.6375L137.708 39.7844C138.13 40.3876 138.735 40.7826 139.491 40.8514L139.673 38.8596ZM139.385 38.6964C139.254 38.4786 139.176 38.2112 139.176 37.8633H137.176C137.176 38.531 137.332 39.162 137.67 39.7254L139.385 38.6964ZM139.176 37.8633C139.176 37.3335 139.273 36.9827 139.401 36.754C139.519 36.5414 139.693 36.381 139.967 36.2668L139.197 34.4207C138.534 34.6971 138.004 35.1519 137.654 35.7792C137.313 36.3903 137.176 37.104 137.176 37.8633H139.176ZM139.664 36.3404L146.812 35.7545L146.649 33.7612L139.5 34.3471L139.664 36.3404ZM147.73 34.7702L147.789 30.0241L145.789 29.9994L145.731 34.7455L147.73 34.7702ZM147.789 30.0243C147.865 23.9615 149.255 18.858 151.911 14.6682L150.222 13.5974C147.331 18.1576 145.869 23.6401 145.789 29.9991L147.789 30.0243ZM151.911 14.6682C154.574 10.4673 158.286 7.29329 163.077 5.14279L162.259 3.31814C157.128 5.62077 153.106 9.04836 150.222 13.5974L151.911 14.6682ZM163.083 5.1401C167.892 2.94421 173.468 1.83203 179.836 1.83203V-0.167969C173.235 -0.167969 167.366 0.98548 162.253 3.32084L163.083 5.1401ZM179.836 1.83203C183.188 1.83203 186.144 2.27019 188.719 3.12837L189.351 1.231C186.535 0.292307 183.359 -0.167969 179.836 -0.167969V1.83203ZM188.731 3.13243C191.32 3.95778 193.25 5.07819 194.588 6.45177L196.021 5.05604C194.391 3.38274 192.141 2.12034 189.339 1.22694L188.731 3.13243ZM194.598 6.46101C195.973 7.83687 196.59 9.25433 196.59 10.7344H198.59C198.59 8.62067 197.683 6.71782 196.012 5.0468L194.598 6.46101ZM196.59 10.7344C196.59 13.4078 196.161 15.1485 195.477 16.1444L197.125 17.2775C198.159 15.7734 198.59 13.5297 198.59 10.7344H196.59ZM195.465 16.1623C194.732 17.2794 193.988 17.8021 193.271 17.9613L193.705 19.9137C195.098 19.6041 196.229 18.6425 197.137 17.2596L195.465 16.1623ZM193.271 17.9613C192.316 18.1737 191.029 18.2891 189.387 18.2891V20.2891C191.104 20.2891 192.551 20.1701 193.705 19.9137L193.271 17.9613ZM190.23 18.7516L183.023 7.44303L181.336 8.51791L188.543 19.8265L190.23 18.7516ZM182.74 7.15219C181.22 6.12388 179.415 5.63281 177.375 5.63281V7.63281C179.085 7.63281 180.483 8.04018 181.619 8.80875L182.74 7.15219ZM177.375 5.63281C171.612 5.63281 166.702 7.3645 162.712 10.8612L164.03 12.3654C167.618 9.22144 172.044 7.63281 177.375 7.63281V5.63281ZM162.716 10.8573C158.612 14.4118 156.688 20.2697 156.688 28.1367H158.688C158.688 20.535 160.552 15.3773 164.026 12.3692L162.716 10.8573ZM156.688 28.1367V34.7578H158.688V28.1367H156.688ZM157.688 35.7578H186.281V33.7578H157.688V35.7578ZM186.308 35.7574C189.202 35.6792 191.082 35.6406 191.965 35.6406V33.6406C191.05 33.6406 189.142 33.6801 186.254 33.7582L186.308 35.7574ZM191.985 35.6404L194.856 35.5818L194.816 33.5822L191.944 33.6408L191.985 35.6404ZM194.836 35.582C194.894 35.582 195.024 35.5987 195.242 35.8165L196.656 34.4023C196.171 33.9169 195.559 33.582 194.836 33.582V35.582ZM195.242 35.8165C195.344 35.9185 195.527 36.2347 195.598 37.0163L197.59 36.8352C197.504 35.8981 197.257 35.0034 196.656 34.4023L195.242 35.8165ZM195.594 36.9258V82.7461H197.594V36.9258H195.594ZM195.594 82.7461C195.594 84.4382 195.972 85.8941 196.905 86.9307L198.392 85.5928C197.918 85.0668 197.594 84.1789 197.594 82.7461H195.594ZM196.923 86.9505C197.774 87.8463 198.764 88.4758 199.888 88.8037L200.448 86.8838C199.697 86.6648 199.007 86.2397 198.373 85.573L196.923 86.9505ZM199.935 88.8161C200.964 89.0633 202.199 89.2644 203.632 89.4236L203.853 87.4358C202.472 87.2825 201.325 87.093 200.401 86.8714L199.935 88.8161ZM203.652 89.4256C204.04 89.4609 204.322 89.5151 204.515 89.5752C204.719 89.6384 204.757 89.6873 204.734 89.6641L206.149 88.2499C205.852 87.9533 205.471 87.7777 205.108 87.6651C204.735 87.5493 204.304 87.4766 203.833 87.4338L203.652 89.4256ZM204.791 89.7163C204.704 89.6417 204.734 89.6077 204.779 89.7855C204.82 89.9498 204.852 90.2118 204.852 90.5977H206.852C206.852 90.1241 206.815 89.6831 206.719 89.3004C206.627 88.9314 206.453 88.5067 206.092 88.1978L204.791 89.7163ZM204.852 90.5977C204.852 90.839 204.76 91.1669 204.452 91.5984L206.079 92.7609C206.552 92.0988 206.852 91.3719 206.852 90.5977H204.852ZM204.424 91.6389C204.233 91.9367 204.063 92 203.859 92V94C204.828 94 205.595 93.5164 206.107 92.7204L204.424 91.6389ZM203.859 92H178.957V94H203.859V92ZM178.957 92C178.655 92 178.477 91.9033 178.314 91.6691L176.67 92.8075C177.211 93.5889 178.009 94 178.957 94V92ZM178.333 91.6975C178.066 91.2811 177.965 90.9191 177.965 90.5977H175.965C175.965 91.37 176.216 92.1017 176.651 92.779L178.333 91.6975ZM177.965 90.5977C177.965 90.0515 178.08 89.7965 178.164 89.6882L176.586 88.4603C176.123 89.0551 175.965 89.8157 175.965 90.5977H177.965ZM178.164 89.6882C178.188 89.6581 178.358 89.4921 179.003 89.4242L178.794 87.4352C177.954 87.5235 177.109 87.7872 176.586 88.4603L178.164 89.6882ZM179.004 89.4241C180.909 89.2214 182.588 88.8327 184.025 88.2411L183.264 86.3917C182.044 86.8938 180.56 87.2473 178.793 87.4353L179.004 89.4241ZM184.048 88.2313C184.82 87.8907 185.474 87.4324 185.937 86.8206C186.408 86.1961 186.637 85.4684 186.637 84.6797H184.637C184.637 85.0628 184.533 85.3605 184.341 85.6149C184.139 85.882 183.797 86.1561 183.241 86.4015L184.048 88.2313ZM186.637 84.6813L186.695 47.4156L184.695 47.4125L184.637 84.6781L186.637 84.6813ZM186.695 47.4141C186.695 44.1239 185.802 41.5873 183.596 40.3838L182.638 42.1396C183.869 42.8111 184.695 44.3761 184.695 47.4141H186.695ZM183.62 40.3972C181.754 39.3125 179.52 38.7969 176.965 38.7969V40.7969C179.253 40.7969 181.121 41.2578 182.615 42.1262L183.62 40.3972ZM176.962 38.7969L157.684 38.8555L157.691 40.8555L176.968 40.7969L176.962 38.7969ZM156.688 39.8555V82.7461H158.688V39.8555H156.688ZM156.688 82.7461C156.688 84.5293 157.256 86.0251 158.528 87.0426L159.777 85.4808C159.096 84.9358 158.688 84.0879 158.688 82.7461H156.688ZM158.528 87.0426C159.627 87.9222 160.882 88.5151 162.278 88.8207L162.706 86.8668C161.603 86.6255 160.631 86.1637 159.777 85.4808L158.528 87.0426ZM162.308 88.8266C163.603 89.0695 165.202 89.2684 167.097 89.4262L167.263 87.4331C165.407 87.2785 163.881 87.0868 162.676 86.8609L162.308 88.8266ZM167.089 89.4256C167.478 89.4609 167.759 89.5151 167.953 89.5752C168.156 89.6384 168.195 89.6873 168.172 89.6641L169.586 88.2499C169.289 87.9533 168.908 87.7777 168.545 87.6651C168.173 87.5493 167.741 87.4766 167.27 87.4338L167.089 89.4256ZM168.228 89.7163C168.141 89.6417 168.172 89.6077 168.216 89.7855C168.257 89.9498 168.289 90.2118 168.289 90.5977H170.289C170.289 90.1241 170.252 89.6831 170.157 89.3004C170.064 88.9314 169.89 88.5067 169.53 88.1978L168.228 89.7163ZM168.289 90.5977C168.289 90.9191 168.188 91.2811 167.921 91.6975L169.603 92.779C170.038 92.1017 170.289 91.37 170.289 90.5977H168.289ZM167.94 91.6691C167.777 91.9033 167.598 92 167.297 92V94C168.245 94 169.043 93.5889 169.584 92.8075L167.94 91.6691ZM167.297 92H140.051V94H167.297V92Z" fill="black"/>
</g>
<defs>
<filter id="filter0_b_1_2" x="-3.98828" y="-3.16797" width="213.84" height="101.75" filterUnits="userSpaceOnUse" color-interpolation-filters="sRGB">
<feFlood flood-opacity="0" result="BackgroundImageFix"/>
<feGaussianBlur in="BackgroundImageFix" stdDeviation="2"/>
<feComposite in2="SourceAlpha" operator="in" result="effect1_backgroundBlur_1_2"/>
<feBlend mode="normal" in="SourceGraphic" in2="effect1_backgroundBlur_1_2" result="shape"/>
</filter>
</defs>
</svg>
