<svg width="4236" height="2672" viewBox="0 0 4236 2672" fill="none" xmlns="http://www.w3.org/2000/svg">
<g filter="url(#filter0_d_8_82)">
<rect x="4" width="1910.6" height="2664" fill="#14A0BF"/>
<rect x="4.5" y="0.5" width="1909.6" height="2663" stroke="black" stroke-opacity="0.2"/>
</g>
<g clip-path="url(#clip0_8_82)">
<path d="M4232.23 652.707C4230.2 630.325 4222.99 608.87 4211.27 590.352C4199.56 571.833 4183.72 556.857 4165.25 546.824L3187.35 14.0799C3170.37 4.82074 3151.64 0 3132.65 0C3113.66 0 3094.93 4.82074 3077.95 14.0799L2100.06 546.824C2081.63 556.914 2065.85 571.908 2054.16 590.418C2042.47 608.927 2035.26 630.353 2033.19 652.707C2031.85 666.958 1915.72 2086.72 3083.09 2652.36C3098.68 2660.03 3115.6 2664 3132.71 2664C3149.83 2664 3166.74 2660.03 3182.34 2652.36C4349.7 2086.72 4233.58 667.091 4232.23 652.707V652.707ZM3132.71 2383.73V1331.96H2339.4C2291.93 1142.61 2269.54 946.847 2272.9 750.599L3132.71 282.184V1331.96H3922.36C3829.58 1696.89 3617.02 2128.28 3132.71 2383.73Z" fill="black"/>
</g>
<rect x="227.378" y="151.331" width="1432.15" height="1606.59" fill="#D9D9D9"/>
<g clip-path="url(#clip1_8_82)">
<path d="M434.143 392.437H603.677V580.244H434.143V392.437Z" fill="black"/>
<path d="M773.212 204.63V768.051H264.608V204.63H773.212ZM688.445 298.534H349.375V674.148H688.445V298.534ZM603.677 1331.47H434.143V1519.28H603.677V1331.47Z" fill="black"/>
<path d="M773.212 1143.67V1707.09H264.608V1143.67H773.212ZM349.375 1237.57V1613.18H688.445V1237.57H349.375ZM1281.82 392.437H1451.35V580.244H1281.82V392.437Z" fill="black"/>
<path d="M1112.28 204.63V768.051H1620.89V204.63H1112.28ZM1536.12 298.534V674.148H1197.05V298.534H1536.12ZM942.747 298.534V204.63H1027.51V392.437H942.747V580.244H857.98V298.534H942.747ZM942.747 768.051V580.244H1027.51V768.051H942.747ZM773.212 955.859V861.955H857.98V768.051H942.747V955.859H1027.51V861.955H1451.35V955.859H1112.28V1049.76H857.98V955.859H773.212ZM773.212 955.859V1049.76H434.143V955.859H349.375V1049.76H264.608V861.955H518.91V955.859H773.212ZM1620.89 1049.76H1536.12V861.955H1620.89V1049.76ZM1536.12 1049.76H1451.35V1237.57H1620.89V1143.67H1536.12V1049.76ZM1197.05 1049.76H1366.58V1143.67H1281.82V1237.57H1197.05V1049.76ZM1366.58 1331.47V1237.57H1281.82V1331.47H1197.05V1425.38H1027.51V1519.28H1281.82V1331.47H1366.58ZM1366.58 1331.47H1620.89V1425.38H1451.35V1519.28H1366.58V1331.47ZM1027.51 1237.57V1331.47H1112.28V1143.67H857.98V1237.57H1027.51Z" fill="black"/>
<path d="M857.979 1331.47H942.747V1613.18H1281.82V1707.09H857.979V1331.47ZM1620.89 1519.28V1707.09H1366.58V1613.18H1536.12V1519.28H1620.89Z" fill="black"/>
</g>
<defs>
<filter id="filter0_d_8_82" x="0" y="0" width="1918.6" height="2672" filterUnits="userSpaceOnUse" color-interpolation-filters="sRGB">
<feFlood flood-opacity="0" result="BackgroundImageFix"/>
<feColorMatrix in="SourceAlpha" type="matrix" values="0 0 0 0 0 0 0 0 0 0 0 0 0 0 0 0 0 0 127 0" result="hardAlpha"/>
<feOffset dy="4"/>
<feGaussianBlur stdDeviation="2"/>
<feComposite in2="hardAlpha" operator="out"/>
<feColorMatrix type="matrix" values="0 0 0 0 0 0 0 0 0 0 0 0 0 0 0 0 0 0 0.25 0"/>
<feBlend mode="normal" in2="BackgroundImageFix" result="effect1_dropShadow_8_82"/>
<feBlend mode="normal" in="SourceGraphic" in2="effect1_dropShadow_8_82" result="shape"/>
</filter>
<clipPath id="clip0_8_82">
<rect width="2207" height="2664" fill="white" transform="translate(2029)"/>
</clipPath>
<clipPath id="clip1_8_82">
<rect width="1426.61" height="2032.98" fill="white" transform="translate(264.608 204.63)"/>
</clipPath>
</defs>
</svg>
