<svg width="1187" height="1376" viewBox="0 0 1187 1376" fill="none" xmlns="http://www.w3.org/2000/svg">
<g filter="url(#filter0_d_3_43)">
<path d="M296.58 1176L552 1316C552 1316 919.875 1264 1092 1176C1161.49 1140.47 1120 620 1120 620C1120 620 1040 488 936 312C832 136 728 68 728 68C728 68 54 4.05934 54 120.953C54 237.846 54 1011.76 54 1011.76L296.58 1176ZM296.58 1176C296.58 1176 310.733 1030.03 296.58 906.96C283.391 792.281 121.383 697.358 121.383 697.358M248 68C248 68 198.874 270.093 326.902 395.048C454.93 520.003 668 224 668 224" stroke="black" stroke-width="100"/>
</g>
<defs>
<filter id="filter0_d_3_43" x="0" y="0.547119" width="1186.29" height="1375.29" filterUnits="userSpaceOnUse" color-interpolation-filters="sRGB">
<feFlood flood-opacity="0" result="BackgroundImageFix"/>
<feColorMatrix in="SourceAlpha" type="matrix" values="0 0 0 0 0 0 0 0 0 0 0 0 0 0 0 0 0 0 127 0" result="hardAlpha"/>
<feOffset dy="4"/>
<feGaussianBlur stdDeviation="2"/>
<feComposite in2="hardAlpha" operator="out"/>
<feColorMatrix type="matrix" values="0 0 0 0 0 0 0 0 0 0 0 0 0 0 0 0 0 0 0.25 0"/>
<feBlend mode="normal" in2="BackgroundImageFix" result="effect1_dropShadow_3_43"/>
<feBlend mode="normal" in="SourceGraphic" in2="effect1_dropShadow_3_43" result="shape"/>
</filter>
</defs>
</svg>
