<svg width="1207" height="444" viewBox="0 0 1207 444" fill="none" xmlns="http://www.w3.org/2000/svg">
<g clip-path="url(#clip0_9_90)">
<path d="M994.241 22.2C885.775 22.2 797.848 117.616 797.848 235.32C797.848 353.024 885.775 448.44 994.241 448.44C1102.71 448.44 1190.63 353.024 1190.63 235.32C1190.63 117.616 1102.71 22.2 994.241 22.2ZM1074.13 196.781C1074.21 198.601 1074.23 200.422 1074.23 202.198C1074.23 257.698 1035.34 321.656 964.189 321.656C943.164 321.694 922.577 315.141 904.902 302.786C907.91 303.185 910.999 303.341 914.129 303.341C932.254 303.341 948.927 296.659 962.163 285.381C954.097 285.209 946.281 282.311 939.805 277.09C933.329 271.869 928.516 264.585 926.035 256.255C931.828 257.45 937.795 257.199 943.485 255.522C934.731 253.601 926.857 248.453 921.201 240.951C915.545 233.45 912.453 224.056 912.451 214.363V213.853C917.668 216.983 923.642 218.892 929.983 219.114C921.776 213.185 915.966 204.077 913.741 193.654C911.516 183.23 913.046 172.278 918.016 163.037C927.732 176.002 939.849 186.608 953.583 194.168C967.316 201.729 982.359 206.075 997.739 206.926C995.784 197.92 996.625 188.465 1000.13 180.031C1003.64 171.597 1009.62 164.657 1017.13 160.29C1024.65 155.923 1033.29 154.373 1041.7 155.881C1050.11 157.39 1057.83 161.872 1063.65 168.631C1072.31 166.772 1080.61 163.327 1088.2 158.441C1085.32 168.168 1079.28 176.427 1071.2 181.685C1078.87 180.682 1086.36 178.445 1093.42 175.047C1088.23 183.481 1081.7 190.841 1074.13 196.781V196.781Z" fill="black"/>
</g>
<g clip-path="url(#clip1_9_90)">
<path d="M646.461 235.32C646.461 252.983 639.995 269.923 628.486 282.413C616.976 294.903 601.366 301.92 585.088 301.92C568.811 301.92 553.201 294.903 541.691 282.413C530.182 269.923 523.716 252.983 523.716 235.32C523.716 231.524 524.084 227.816 524.718 224.22H503.258V312.953C503.258 319.125 507.861 324.12 513.548 324.12H656.649C659.375 324.114 661.987 322.935 663.912 320.842C665.838 318.748 666.919 315.911 666.919 312.953V224.22H645.459C646.093 227.816 646.461 231.524 646.461 235.32V235.32ZM585.088 279.72C590.463 279.719 595.784 278.568 600.749 276.335C605.714 274.102 610.225 270.829 614.024 266.704C617.823 262.579 620.837 257.683 622.892 252.294C624.948 246.905 626.005 241.13 626.004 235.298C626.002 229.466 624.942 223.691 622.885 218.303C620.827 212.916 617.811 208.021 614.01 203.898C610.208 199.775 605.696 196.505 600.73 194.274C595.764 192.044 590.442 190.896 585.068 190.898C574.214 190.901 563.805 195.583 556.132 203.913C548.459 212.244 544.15 223.541 544.153 235.32C544.155 247.099 548.47 258.394 556.147 266.72C563.824 275.047 574.234 279.723 585.088 279.72V279.72ZM634.187 188.7H658.715C660.345 188.7 661.908 187.999 663.062 186.751C664.217 185.502 664.868 183.808 664.873 182.04V155.422C664.873 153.65 664.224 151.95 663.07 150.697C661.915 149.444 660.349 148.74 658.715 148.74H634.187C632.554 148.74 630.987 149.444 629.833 150.697C628.678 151.95 628.029 153.65 628.029 155.422V182.04C628.049 185.703 630.811 188.7 634.187 188.7V188.7ZM585.088 22.2C533.002 22.2 483.048 44.6536 446.218 84.6214C409.387 124.589 388.695 178.797 388.695 235.32C388.695 291.843 409.387 346.051 446.218 386.019C483.048 425.986 533.002 448.44 585.088 448.44C610.879 448.44 636.417 442.928 660.245 432.217C684.072 421.507 705.723 405.809 723.959 386.019C742.196 366.229 756.662 342.734 766.532 316.877C776.402 291.021 781.482 263.307 781.482 235.32C781.482 207.333 776.402 179.619 766.532 153.762C756.662 127.906 742.196 104.411 723.959 84.6214C705.723 64.8313 684.072 49.133 660.245 38.4227C636.417 27.7125 610.879 22.2 585.088 22.2V22.2ZM687.377 321.656C687.377 335.22 677.148 346.32 664.648 346.32H505.529C493.029 346.32 482.8 335.22 482.8 321.656V148.984C482.8 135.42 493.029 124.32 505.529 124.32H664.648C677.148 124.32 687.377 135.42 687.377 148.984V321.656V321.656Z" fill="black"/>
</g>
<g clip-path="url(#clip2_9_90)">
<path d="M368.246 234.397C368.246 117.189 285.807 22.1786 184.127 22.1786C82.4017 22.205 -0.0373535 117.189 -0.0373535 234.423C-0.0373535 340.321 67.304 428.108 155.313 444.031V295.742H108.593V234.423H155.359V187.63C155.359 134.456 182.861 105.089 224.91 105.089C245.071 105.089 266.129 109.228 266.129 109.228V161.425H242.907C220.053 161.425 212.919 177.796 212.919 194.589V234.397H263.966L255.818 295.716H212.896V444.005C300.904 428.082 368.246 340.295 368.246 234.397Z" fill="black"/>
</g>
<defs>
<clipPath id="clip0_9_90">
<rect width="409.152" height="444" fill="white" transform="translate(797.848)"/>
</clipPath>
<clipPath id="clip1_9_90">
<rect width="409.152" height="444" fill="white" transform="translate(388.695)"/>
</clipPath>
<clipPath id="clip2_9_90">
<rect width="368.237" height="421.8" fill="white" transform="translate(0 22.2001)"/>
</clipPath>
</defs>
</svg>
