<svg width="1430" height="1474" viewBox="0 0 1430 1474" fill="none" xmlns="http://www.w3.org/2000/svg">
<path d="M1380 637.999C1380 637.999 1211.73 507.744 1156 508C1100.92 508.253 950 637.998 950 637.998C950 637.998 761.236 512.642 714 508M54.0002 637.998C54.0002 637.998 208.269 507.819 264 508C317.952 508.175 484 637.999 484 637.999C484 637.999 660.62 502.754 714 508M714 508C714 508 726.03 887.545 722.001 1202C722.001 1202 735.933 1424.25 660.001 1424C584.068 1423.75 603.339 1202 603.339 1202L603.339 1078" stroke="black" stroke-width="100"/>
<path d="M1380 642C1380 340.453 1082.27 96 715 96C347.731 96 50 340.453 50 642" stroke="black" stroke-width="100"/>
<path d="M692.324 96C692.324 96 688.36 50 708.18 50C728 50 728 96 728 96" stroke="black" stroke-width="100"/>
</svg>
